<?xml version="1.0" standalone="no"?>
<svg xmlns:xlink="http://www.w3.org/1999/xlink" id="wave" 
style="transform:rotate(180deg); transition: 0.3s" viewBox="0 0 1440 190" 
version="1.1" xmlns="http://www.w3.org/2000/svg"><defs><linearGradient 
id="sw-gradient-0" x1="0" x2="0" y1="1" y2="0">
<stop stop-color="#94a3b8" offset="0%"/>
<stop stop-color="#94a3b8" offset="100%"/></linearGradient>
</defs><path style="transform:translate(0, 0px); opacity:1" fill="url(#sw-gradient-0)" d="M0,133L20,120.3C40,108,80,82,120,66.5C160,51,200,44,240,41.2C280,38,320,38,360,57C400,76,440,114,480,136.2C520,158,560,165,600,142.5C640,120,680,70,720,53.8C760,38,800,57,840,57C880,57,920,38,960,41.2C1000,44,1040,70,1080,69.7C1120,70,1160,44,1200,31.7C1240,19,1280,19,1320,25.3C1360,32,1400,44,1440,69.7C1480,95,1520,133,1560,136.2C1600,139,1640,108,1680,101.3C1720,95,1760,114,1800,104.5C1840,95,1880,57,1920,60.2C1960,63,2000,108,2040,117.2C2080,127,2120,101,2160,104.5C2200,108,2240,139,2280,139.3C2320,139,2360,108,2400,85.5C2440,63,2480,51,2520,60.2C2560,70,2600,101,2640,120.3C2680,139,2720,146,2760,129.8C2800,114,2840,76,2860,57L2880,38L2880,190L2860,190C2840,190,2800,190,2760,190C2720,190,2680,190,2640,190C2600,190,2560,190,2520,190C2480,190,2440,190,2400,190C2360,190,2320,190,2280,190C2240,190,2200,190,2160,190C2120,190,2080,190,2040,190C2000,190,1960,190,1920,190C1880,190,1840,190,1800,190C1760,190,1720,190,1680,190C1640,190,1600,190,1560,190C1520,190,1480,190,1440,190C1400,190,1360,190,1320,190C1280,190,1240,190,1200,190C1160,190,1120,190,1080,190C1040,190,1000,190,960,190C920,190,880,190,840,190C800,190,760,190,720,190C680,190,640,190,600,190C560,190,520,190,480,190C440,190,400,190,360,190C320,190,280,190,240,190C200,190,160,190,120,190C80,190,40,190,20,190L0,190Z"/></svg>