<?xml version="1.0" standalone="no"?>
<svg xmlns:xlink="http://www.w3.org/1999/xlink" 
id="wave" style="transform:rotate(180deg); transition: 0.3s" 
viewBox="0 0 1440 200" version="1.1" xmlns="http://www.w3.org/2000/svg"><defs>
<linearGradient id="sw-gradient-0" x1="0" x2="0" y1="1" y2="0">
<stop stop-color="#94a3b8" offset="0%"/>
<stop stop-color="#94a3b8" offset="100%"/></linearGradient></defs>
<path style="transform:translate(0, 0px); opacity:1" fill="url(#sw-gradient-0)" d="M0,140L34.3,126.7C68.6,113,137,87,206,70C274.3,53,343,47,411,43.3C480,40,549,40,617,60C685.7,80,754,120,823,143.3C891.4,167,960,173,1029,150C1097.1,127,1166,73,1234,56.7C1302.9,40,1371,60,1440,60C1508.6,60,1577,40,1646,43.3C1714.3,47,1783,73,1851,73.3C1920,73,1989,47,2057,33.3C2125.7,20,2194,20,2263,26.7C2331.4,33,2400,47,2469,73.3C2537.1,100,2606,140,2674,143.3C2742.9,147,2811,113,2880,106.7C2948.6,100,3017,120,3086,110C3154.3,100,3223,60,3291,63.3C3360,67,3429,113,3497,123.3C3565.7,133,3634,107,3703,110C3771.4,113,3840,147,3909,146.7C3977.1,147,4046,113,4114,90C4182.9,67,4251,53,4320,63.3C4388.6,73,4457,107,4526,126.7C4594.3,147,4663,153,4731,136.7C4800,120,4869,80,4903,60L4937.1,40L4937.1,200L4902.9,200C4868.6,200,4800,200,4731,200C4662.9,200,4594,200,4526,200C4457.1,200,4389,200,4320,200C4251.4,200,4183,200,4114,200C4045.7,200,3977,200,3909,200C3840,200,3771,200,3703,200C3634.3,200,3566,200,3497,200C3428.6,200,3360,200,3291,200C3222.9,200,3154,200,3086,200C3017.1,200,2949,200,2880,200C2811.4,200,2743,200,2674,200C2605.7,200,2537,200,2469,200C2400,200,2331,200,2263,200C2194.3,200,2126,200,2057,200C1988.6,200,1920,200,1851,200C1782.9,200,1714,200,1646,200C1577.1,200,1509,200,1440,200C1371.4,200,1303,200,1234,200C1165.7,200,1097,200,1029,200C960,200,891,200,823,200C754.3,200,686,200,617,200C548.6,200,480,200,411,200C342.9,200,274,200,206,200C137.1,200,69,200,34,200L0,200Z"/></svg>