<?xml version="1.0" standalone="no"?>
<svg xmlns:xlink="http://www.w3.org/1999/xlink" id="wave" style="transform:rotate(180deg); transition: 0.3s" 
viewBox="0 0 1440 240" version="1.1" xmlns="http://www.w3.org/2000/svg"><defs>
<linearGradient id="sw-gradient-0" x1="0" x2="0" y1="1" y2="0">
<stop stop-color="#94a3b8" offset="0%"/>
<stop stop-color="#94a3b8" offset="100%"/></linearGradient></defs>
<path style="transform:translate(0, 0px); opacity:1" fill="url(#sw-gradient-0)" 
d="M0,168L40,152C80,136,160,104,240,84C320,64,400,56,480,52C560,48,640,48,720,72C800,96,880,144,960,172C1040,200,1120,208,1200,180C1280,152,1360,88,1440,68C1520,48,1600,72,1680,72C1760,72,1840,48,1920,52C2000,56,2080,88,2160,88C2240,88,2320,56,2400,40C2480,24,2560,24,2640,32C2720,40,2800,56,2880,88C2960,120,3040,168,3120,172C3200,176,3280,136,3360,128C3440,120,3520,144,3600,132C3680,120,3760,72,3840,76C3920,80,4000,136,4080,148C4160,160,4240,128,4320,132C4400,136,4480,176,4560,176C4640,176,4720,136,4800,108C4880,80,4960,64,5040,76C5120,88,5200,128,5280,152C5360,176,5440,184,5520,164C5600,144,5680,96,5720,72L5760,48L5760,240L5720,240C5680,240,5600,240,5520,240C5440,240,5360,240,5280,240C5200,240,5120,240,5040,240C4960,240,4880,240,4800,240C4720,240,4640,240,4560,240C4480,240,4400,240,4320,240C4240,240,4160,240,4080,240C4000,240,3920,240,3840,240C3760,240,3680,240,3600,240C3520,240,3440,240,3360,240C3280,240,3200,240,3120,240C3040,240,2960,240,2880,240C2800,240,2720,240,2640,240C2560,240,2480,240,2400,240C2320,240,2240,240,2160,240C2080,240,2000,240,1920,240C1840,240,1760,240,1680,240C1600,240,1520,240,1440,240C1360,240,1280,240,1200,240C1120,240,1040,240,960,240C880,240,800,240,720,240C640,240,560,240,480,240C400,240,320,240,240,240C160,240,80,240,40,240L0,240Z"/></svg>